<?xml version="1.0" encoding="UTF-8"?>
<svg id="Ebene_1" xmlns="http://www.w3.org/2000/svg" version="1.1" viewBox="0 0 24 24">
  <!-- Generator: Adobe Illustrator 30.2.1, SVG Export Plug-In . SVG Version: 2.1.1 Build 1)  -->
  <defs>
    <style>
      .st0, .st1 {
        stroke: #000;
        stroke-linecap: round;
        stroke-linejoin: round;
        stroke-width: 1.5px;
      }

      .st1 {
        fill: none;
      }
    </style>
  </defs>
  <line class="st1" x1="6" y1="20" x2="6" y2="19.99"/>
  <line class="st1" x1="18" y1="20" x2="18" y2="19.99"/>
  <circle class="st1" cx="12" cy="10" r="4"/>
  <path class="st0" d="M22,12c0,3.27-1.57,6.17-4,7.99-.01-3.31-2.69-5.99-6-5.99,2.21,0,4-1.79,4-4s-1.79-4-4-4-4,1.79-4,4,1.79,4,4,4c-3.31,0-5.99,2.68-6,5.99-2.43-1.82-4-4.72-4-7.99C2,6.48,6.48,2,12,2s10,4.48,10,10Z"/>
  <circle class="st1" cx="12" cy="10" r="4"/>
  <path class="st1" d="M18,19.99h0c-1.67,1.26-3.75,2.01-6,2.01s-4.33-.75-6-2h0c.01-3.32,2.69-6,6-6s5.99,2.68,6,5.99Z"/>
</svg>