<?xml version="1.0" encoding="UTF-8"?>
<svg id="Ebene_1" xmlns="http://www.w3.org/2000/svg" version="1.1" viewBox="0 0 24 24">
  <!-- Generator: Adobe Illustrator 30.2.1, SVG Export Plug-In . SVG Version: 2.1.1 Build 1)  -->
  <defs>
    <style>
      .st0, .st1 {
        stroke: #000;
        stroke-linecap: round;
        stroke-linejoin: round;
        stroke-width: 1.5px;
      }

      .st1 {
        fill: none;
      }
    </style>
  </defs>
  <circle class="st1" cx="12" cy="11" r="4"/>
  <path class="st0" d="M21,5v14c0,1.1-.9,2-2,2h-1c0-3.31-2.69-6-6-6,2.21,0,4-1.79,4-4s-1.79-4-4-4-4,1.79-4,4,1.79,4,4,4c-3.31,0-6,2.69-6,6h-1c-1.1,0-2-.9-2-2V5c0-1.1.9-2,2-2h14c1.1,0,2,.9,2,2Z"/>
  <path class="st1" d="M18,21H6c0-3.31,2.69-6,6-6s6,2.69,6,6Z"/>
</svg>